<svg width="24" height="19" viewBox="0 0 24 19" fill="none" xmlns="http://www.w3.org/2000/svg">
<path d="M11.4506 0C11.747 0.147206 12.0803 0.569944 12.304 0.819904C14.2235 2.96412 15.2303 5.69511 15.0522 8.56987C14.8798 11.3518 13.506 13.822 11.4439 15.6476C11.0534 15.3807 10.6961 15.0008 10.3837 14.6476C8.63197 12.6664 7.67178 9.8828 7.83907 7.24199C8.01154 4.51928 9.40332 1.79491 11.4506 0Z" fill="#0D0B0A"/>
<path d="M19.6207 3.89363C19.6264 3.90326 19.6329 3.91251 19.6378 3.92257C19.747 4.14502 19.7786 4.49797 19.8063 4.74487C19.9506 6.02887 19.8312 7.31624 19.3796 8.53196C18.2514 11.5692 15.6436 13.8049 12.7603 15.1304C12.7263 15.13 12.7491 15.1327 12.6973 15.1025C12.8734 14.8143 13.1192 14.5566 13.3225 14.2858C13.6334 13.863 13.9152 13.4196 14.1657 12.9589C15.049 11.3336 15.4714 9.54623 15.47 7.70292C15.4697 7.1794 15.4577 6.65646 15.3062 6.1512C15.5766 5.8511 15.9079 5.59816 16.2295 5.35478C17.266 4.57039 18.3104 4.02451 19.6207 3.89363Z" fill="#0D0B0A"/>
<path d="M3.24546 3.90634C3.40107 3.91234 3.55806 3.93253 3.71196 3.95594C4.89638 4.13615 5.9327 4.76687 6.85795 5.49682C7.11619 5.70055 7.39872 5.91299 7.59317 6.1807C7.10122 8.70816 7.75368 11.3583 9.06058 13.5442C9.2693 13.8916 9.49477 14.2286 9.73622 14.5543C9.85151 14.7094 9.98874 14.8503 10.0921 15.0131L10.0555 15.0607C7.90066 14.1392 5.88206 12.5085 4.58347 10.5594C3.22113 8.51445 2.77065 6.31166 3.24546 3.90634Z" fill="#0D0B0A"/>
<path d="M21.7283 9.54662C22.0719 9.50561 22.8419 9.46228 23.1299 9.64566C23.1444 9.68899 23.1487 9.69324 23.1502 9.74586C23.156 9.94742 23.0243 10.2492 22.956 10.4372C22.499 11.7348 21.7166 12.8935 20.6838 13.8022C18.6619 15.59 16.0411 16.2314 13.3943 16.0612C12.8943 16.009 12.379 15.9742 11.8984 15.821C14.116 15.1389 16.2255 13.7454 17.7539 12.0052C18.1296 11.5773 18.405 11.0806 18.7706 10.6504C19.4644 9.83368 20.7224 9.6178 21.7283 9.54662Z" fill="#0D0B0A"/>
<path d="M0.54306 9.61431C1.57648 9.49245 2.97875 9.66267 3.82995 10.306C4.33602 10.6887 4.641 11.399 5.05925 11.8826C6.36719 13.3972 8.00534 14.5915 9.84752 15.3733C10.2398 15.5412 10.6436 15.7165 11.0584 15.8186L10.2293 15.9571C7.8148 16.3045 5.31281 15.8732 3.24693 14.5299C1.8401 13.615 0.849543 12.3604 0.26718 10.7954C0.181681 10.566 0.0537019 10.3169 0.00998501 10.0778C-0.0155488 9.93813 0.00692865 9.84605 0.0885206 9.72767C0.218395 9.63211 0.387227 9.63327 0.54306 9.61431Z" fill="#0D0B0A"/>
<path d="M11.5762 15.9823C11.9962 16.1316 12.4189 16.2512 12.8595 16.3227C13.6186 16.4458 14.5006 16.4098 15.1826 16.8052C15.6862 17.0973 16.202 17.7813 16.3443 18.3484C16.3704 18.4525 16.3629 18.461 16.3095 18.5473C15.7824 18.7372 15.2705 18.692 14.746 18.5202C13.4825 18.107 12.1946 17.1862 11.5762 15.9823Z" fill="#0D0B0A"/>
<path d="M11.3384 15.9854C11.365 15.983 11.3906 15.997 11.4164 16.0043C11.4151 16.0163 11.4153 16.0287 11.4124 16.0407C11.3476 16.3096 10.3074 17.406 10.0672 17.5959C9.23727 18.2513 8.00496 18.7716 6.93424 18.6436C6.90561 18.6374 6.86584 18.6297 6.83977 18.6177C6.78212 18.591 6.7456 18.5697 6.7304 18.5074C6.68981 18.3399 6.78502 18.1457 6.86116 18.0002C7.10644 17.5313 7.49053 16.9812 7.97172 16.7278C8.56484 16.416 9.44065 16.4171 10.0998 16.2999C10.5221 16.2248 10.929 16.1103 11.3384 15.9854Z" fill="#0D0B0A"/>
</svg>
